<svg width="33" height="33" viewBox="0 0 33 33" fill="none" xmlns="http://www.w3.org/2000/svg"><g clip-path="url(#clip0_1125_4501)"><ellipse cx="16.499" cy="16.806" rx="13.553" ry="13.015" fill="#fff"/><path d="M16.501 20.242c1.869 0 3.384-1.469 3.384-3.281S18.37 13.68 16.5 13.68s-3.384 1.469-3.384 3.28c0 1.813 1.515 3.282 3.384 3.282z" fill="#5C3EFF"/><path d="M16.5 1.336C7.6 1.336.387 8.33.387 16.96S7.601 32.585 16.5 32.585c8.9 0 16.113-6.996 16.113-15.625 0-8.63-7.214-15.625-16.113-15.625zm9.955 19.596c-.077 1.486-.507 2.95-1.624 4.022-1.127 1.08-2.645 1.484-4.192 1.558h-8.278c-1.547-.074-3.065-.477-4.192-1.558-1.116-1.071-1.547-2.536-1.624-4.022V12.99c.077-1.486.508-2.95 1.624-4.022 1.127-1.081 2.645-1.484 4.192-1.558h8.278c1.547.074 3.065.477 4.192 1.558 1.117 1.071 1.547 2.536 1.624 4.022v7.942z" fill="#5C3EFF"/><path d="M20.535 9.22a202.364 202.364 0 00-8.07 0c-1.049.027-2.238.28-2.986 1.055-.777.805-1.07 1.777-1.1 2.865-.053 1.91 0 7.641 0 7.641.034 1.088.323 2.06 1.1 2.866.748.774 1.937 1.027 2.987 1.055 2.016.054 6.052.054 8.069 0 1.049-.028 2.239-.281 2.986-1.056.777-.804 1.07-1.777 1.1-2.865v-7.64c-.03-1.088-.323-2.061-1.1-2.866-.748-.775-1.937-1.028-2.986-1.056zM16.5 22.046a5.362 5.362 0 01-2.914-.857 5.123 5.123 0 01-1.932-2.283 4.942 4.942 0 01-.298-2.938 5.04 5.04 0 011.435-2.604 5.297 5.297 0 012.686-1.392 5.397 5.397 0 013.03.289 5.213 5.213 0 012.354 1.873c.576.837.884 1.82.884 2.826a5.009 5.009 0 01-1.536 3.596 5.33 5.33 0 01-3.71 1.49zm5.267-9.122c-.207 0-.41-.06-.583-.172a1.025 1.025 0 01-.386-.456.99.99 0 01.228-1.109 1.08 1.08 0 011.143-.22c.191.077.355.207.47.374a.995.995 0 01-.13 1.285 1.052 1.052 0 01-.742.298z" fill="#5C3EFF"/></g><defs><clipPath id="clip0_1125_4501"><path fill="#fff" transform="translate(0 .96)" d="M0 0h33v32H0z"/></clipPath></defs></svg>