<svg width="62" height="62" viewBox="0 0 62 62" fill="none" xmlns="http://www.w3.org/2000/svg"><g clip-path="url(#clip0_1264_3490)"><ellipse cx="31.184" cy="30.314" rx="25.145" ry="24.901" fill="#fff"/><path d="M31.176 36.89a6.278 6.278 0 100-12.556 6.278 6.278 0 000 12.555z" fill="#000"/><path d="M31.183.718c-16.51 0-29.894 13.384-29.894 29.894 0 16.51 13.384 29.894 29.894 29.894 16.51 0 29.894-13.384 29.894-29.894 0-16.51-13.384-29.894-29.894-29.894zm18.47 37.491c-.144 2.843-.943 5.645-3.014 7.694-2.091 2.07-4.907 2.84-7.777 2.982H23.504c-2.87-.142-5.686-.913-7.777-2.982-2.071-2.049-2.87-4.851-3.013-7.694V23.014c.143-2.842.942-5.645 3.013-7.694 2.091-2.069 4.907-2.84 7.777-2.982h15.358c2.87.142 5.686.913 7.777 2.982 2.071 2.05 2.87 4.852 3.013 7.694v15.195z" fill="#000"/><path d="M38.666 15.8c-3.741-.102-11.23-.102-14.97 0-1.947.054-4.154.539-5.541 2.02-1.442 1.54-1.986 3.4-2.042 5.482-.097 3.654 0 14.619 0 14.619.064 2.08.6 3.942 2.042 5.482 1.387 1.482 3.594 1.966 5.54 2.02 3.742.102 11.23.102 14.97 0 1.947-.054 4.154-.539 5.541-2.02 1.442-1.54 1.986-3.4 2.042-5.482V23.302c-.055-2.081-.6-3.942-2.041-5.482-1.388-1.482-3.595-1.966-5.541-2.02zM31.18 40.343a9.73 9.73 0 110-19.46 9.73 9.73 0 010 19.46zm9.772-17.452a1.946 1.946 0 11.001-3.893 1.946 1.946 0 01-.001 3.893z" fill="#000"/></g><defs><clipPath id="clip0_1264_3490"><path fill="#fff" transform="translate(.57)" d="M0 0h61.223v61.223H0z"/></clipPath></defs></svg>