<svg width="62" height="61" viewBox="0 0 62 61" fill="none" xmlns="http://www.w3.org/2000/svg"><g clip-path="url(#clip0_1264_3487)"><ellipse cx="31.041" cy="30.314" rx="22.58" ry="22.361" fill="#fff"/><path d="M31.049 60.628c16.91 0 30.611-13.568 30.611-30.314C61.66 13.568 47.96 0 31.05 0 14.139 0 .438 13.568.438 30.314c0 16.746 13.7 30.314 30.61 30.314zm-16.604-30.97l29.514-11.27c1.37-.49 2.566.331 2.123 2.382l.002-.002-5.025 23.445c-.373 1.663-1.37 2.067-2.765 1.283l-7.653-5.585-3.691 3.522c-.409.404-.753.745-1.544.745l.544-7.713 14.183-12.689c.617-.538-.138-.84-.952-.305L21.654 34.399l-7.556-2.334c-1.64-.515-1.676-1.624.347-2.408z" fill="#000"/></g><defs><clipPath id="clip0_1264_3487"><path fill="#fff" transform="translate(.438)" d="M0 0h61.223v60.628H0z"/></clipPath></defs></svg>