<svg viewBox="0 0 238 65" fill="none" xmlns="http://www.w3.org/2000/svg"><path d="M17.548 36.75c-5.175 0-10.744-3.742-14.323-9.66-3.704-6.144-4.26-12.905-1.448-17.66C7.292.124 16.397-1.679 22.163 1.35c4.234 2.227 7.786 7.82 3.86 16.282-1.22 2.627-1.044 5.667-.874 8.606.186 3.24.364 6.3-1.492 8.361-1.178 1.313-3.009 2.012-5.594 2.139-.17.007-.338.011-.515.011zM16.47 2.382c-4.28 0-9.208 2.484-12.633 8.28-2.825 4.76-1.112 10.966 1.436 15.184 3.244 5.383 8.226 8.722 12.682 8.504 1.906-.085 3.19-.545 3.914-1.348 1.19-1.322 1.047-3.78.884-6.627-.18-3.082-.38-6.577 1.09-9.749 3.224-6.926.661-11.34-2.803-13.16a9.823 9.823 0 00-4.57-1.084z" fill="#FF57C6"/><path d="M25.887 26.677a15.014 15.014 0 01-6.567-1.428c-3.062-1.47-6.92-4.78-7.908-12.19-.377-2.831.23-5.154 1.775-6.9 3.578-4.037 11.374-3.94 16.533-3.88.596 0 1.151.015 1.671.015.963 0 1.955-.027 3.007-.055 6.123-.168 13.075-.345 15.363 5.009 2.319 5.43-.205 8.913-11.259 15.531-4.309 2.583-8.662 3.898-12.615 3.898zm1.683-22.03c-4.528 0-10.143.324-12.592 3.086-1.089 1.237-1.48 2.87-1.195 5.01.67 5.028 2.945 8.61 6.575 10.35 4.498 2.165 10.82 1.278 16.915-2.372 11.62-6.959 11.639-9.382 10.288-12.544-1.65-3.861-7.47-3.707-13.099-3.558-1.02.028-2.072.055-3.068.055-.525 0-1.096 0-1.701-.013-.668 0-1.373-.01-2.123-.01v-.004z" fill="#10E6D9"/><path d="M36.528 42.534c-3.209 0-6.142-.798-8.501-2.369-3.31-2.203-5.251-5.767-5.61-10.304-.325-4.098 1.47-7.911 5.064-10.735 5.587-4.402 14.565-5.664 22.344-3.14 4.433 1.44 6.878 4.49 6.883 8.59 0 3.144-1.492 6.825-4.1 10.102-2.55 3.204-5.836 5.637-9.015 6.67a22.794 22.794 0 01-7.065 1.186zm4.996-25.455c-4.745 0-9.317 1.36-12.572 3.923-2.072 1.638-4.484 4.47-4.143 8.67.299 3.78 1.873 6.722 4.55 8.509 3.4 2.265 8.316 2.594 13.488.904 5.792-1.89 11.471-9.075 11.466-14.502 0-3.068-1.763-5.193-5.23-6.32a24.622 24.622 0 00-7.56-1.184z" fill="#ED534B"/><path d="M38.242 52.19c-.53 0-1.06-.04-1.586-.117a13.214 13.214 0 01-6.611-3.148c-.778-.654-1.68-1.323-2.634-2.031-4.712-3.502-10.577-7.858-10.011-15.98.405-5.819 3.44-10.678 8.117-12.998 4.452-2.21 9.765-1.796 14.21 1.106 5.267 3.438 9.141 10.204 9.871 17.234.539 5.19-.767 9.658-3.683 12.558-2.654 2.66-5.444 3.376-7.673 3.376zm-6.676-33.31c-1.73 0-3.438.402-4.986 1.175-3.966 1.968-6.445 5.979-6.793 11.024-.476 6.819 4.586 10.579 9.052 13.897.99.736 1.924 1.43 2.762 2.134l.037.032c2.274 2.07 7.827 4.742 12.592-.018 2.392-2.387 3.453-6.16 2.992-10.622-.649-6.246-4.185-12.467-8.798-15.48a12.536 12.536 0 00-6.862-2.142h.004z" fill="#9F72FF"/><path d="M18.81 53.293a14.44 14.44 0 01-7.496-1.977c-3.803-2.265-6.383-6.44-6.906-11.186-.446-4.075-1.056-9.658 6.216-13.526 5.706-3.036 14.733-2.07 21.13.23 2.118.763 7.18 2.872 8.46 5.979a10.252 10.252 0 01-.09 8.016c-1.782 4.245-6.245 7.925-12.91 10.639-3.227 1.329-6.024 1.825-8.404 1.825zm1.098-26.216c-3.437 0-6.283.651-8.152 1.647-5.44 2.881-5.497 6.28-4.965 11.149.437 3.997 2.585 7.508 5.755 9.392 3.662 2.18 8.428 2.18 13.78 0 7.658-3.119 10.538-6.807 11.606-9.35a7.907 7.907 0 00.083-6.185c-.626-1.522-3.33-3.302-7.058-4.643a32.876 32.876 0 00-11.05-2.021v.011z" fill="#FFA800"/><path d="M101.917 18.704v25.712h-7.136v-2.962c-1.85 2.228-4.53 3.342-8.04 3.344a13.512 13.512 0 01-6.601-1.624 11.686 11.686 0 01-4.593-4.636c-1.117-2.007-1.675-4.332-1.673-6.977.001-2.645.56-4.971 1.673-6.98a11.693 11.693 0 014.593-4.633 13.515 13.515 0 016.602-1.626c3.284 0 5.852 1.036 7.703 3.107v-2.725h7.472zM88.043 38.68c1.883 0 3.445-.637 4.69-1.911 1.242-1.306 1.864-3.043 1.866-5.209.001-2.166-.621-3.887-1.867-5.163a6.2 6.2 0 00-4.69-1.959c-1.911 0-3.49.653-4.734 1.96-1.244 1.273-1.866 2.994-1.868 5.162-.001 2.168.621 3.904 1.868 5.209 1.243 1.274 2.821 1.91 4.735 1.91zm28.047-19.402h6.603v5.735h-6.402v19.402h-7.464V18.131c0-2.931.861-5.257 2.584-6.977 1.754-1.72 4.209-2.58 7.366-2.582a12.572 12.572 0 013.158.384 7.384 7.384 0 012.532 1.002l-1.963 5.402a5.096 5.096 0 00-3.014-.908c-2.266 0-3.4 1.24-3.4 3.72v1.107zm17.613 0h6.602v5.735h-6.402v19.402h-7.454V18.131c0-2.931.861-5.257 2.583-6.977 1.754-1.72 4.21-2.58 7.366-2.582a12.606 12.606 0 013.159.384 7.391 7.391 0 012.532 1.002l-1.966 5.402a5.095 5.095 0 00-3.013-.908c-2.265 0-3.398 1.242-3.398 3.728l-.009 1.099zm25.985-.957c3.191 0 5.758.956 7.703 2.868 1.977 1.911 2.966 4.748 2.964 8.508v14.718h-7.453V30.848c0-2.039-.447-3.552-1.34-4.54-.892-1.02-2.183-1.53-3.875-1.529-1.881 0-3.379.59-4.496 1.769-1.115 1.145-1.674 2.865-1.675 5.16v12.713h-7.463V8.956h7.463v12.436a9.691 9.691 0 013.588-2.247 12.682 12.682 0 014.593-.823h-.009zm43.366.382v25.712h-7.072v-3.058a10.18 10.18 0 01-3.541 2.57 11.395 11.395 0 01-4.45.86c-3.376 0-6.055-.97-8.036-2.913-1.981-1.942-2.971-4.826-2.967-8.651v-14.52h7.472v13.43c0 4.14 1.738 6.209 5.214 6.209 1.786 0 3.222-.574 4.307-1.72 1.083-1.18 1.625-2.916 1.625-5.211V18.704h7.448zm22.126-.382c2.278-.03 4.524.547 6.506 1.672a11.598 11.598 0 014.64 4.636c1.118 1.976 1.676 4.287 1.674 6.931-.002 2.645-.56 4.97-1.674 6.977a12.012 12.012 0 01-4.64 4.636 13.136 13.136 0 01-6.506 1.624c-3.541 0-6.235-1.115-8.084-3.344v2.962h-7.137V8.956h7.464v12.473c1.89-2.071 4.479-3.107 7.766-3.107h-.009zm-1.292 20.359c1.913 0 3.475-.637 4.687-1.911 1.247-1.306 1.869-3.043 1.868-5.209-.002-2.166-.625-3.887-1.868-5.163-1.21-1.306-2.773-1.959-4.687-1.959-1.913 0-3.492.653-4.737 1.96-1.212 1.273-1.818 2.994-1.816 5.162.002 2.168.607 3.904 1.816 5.209 1.253 1.274 2.834 1.91 4.747 1.91h-.01zM88.273 52.38c1.456 0 2.61.439 3.46 1.317.85.863 1.275 2.165 1.275 3.906v6.831h-2.702v-6.473c0-1.042-.223-1.823-.67-2.344-.447-.536-1.088-.804-1.925-.804-.907 0-1.635.313-2.183.938-.548.61-.822 1.488-.822 2.634v6.05h-2.703V57.96c0-1.042-.223-1.823-.67-2.344-.447-.536-1.088-.804-1.924-.804-.923 0-1.658.305-2.206.915-.533.61-.8 1.496-.8 2.657v6.05h-2.702v-11.92h2.573v1.518a4.212 4.212 0 011.621-1.228c.649-.283 1.37-.424 2.162-.424.865 0 1.63.17 2.292.513.678.328 1.21.819 1.6 1.474a4.743 4.743 0 011.838-1.451c.75-.358 1.578-.536 2.486-.536zm19.148 6.161c0 .194-.014.469-.043.826h-9.06c.16.878.57 1.578 1.233 2.098.678.506 1.513.76 2.508.76 1.268 0 2.313-.432 3.135-1.295l1.448 1.719a4.877 4.877 0 01-1.967 1.45c-.793.328-1.686.492-2.681.492-1.268 0-2.386-.26-3.351-.782a5.624 5.624 0 01-2.25-2.165c-.518-.938-.778-1.994-.778-3.17 0-1.16.253-2.202.757-3.125a5.595 5.595 0 012.14-2.188c.91-.52 1.933-.781 3.071-.781 1.124 0 2.126.26 3.006.781a5.204 5.204 0 012.076 2.166c.504.922.756 1.994.756 3.214zm-5.838-3.929c-.865 0-1.6.268-2.205.804-.591.52-.951 1.22-1.081 2.098h6.551c-.115-.863-.468-1.562-1.059-2.098-.592-.536-1.326-.804-2.206-.804zm19.743-6.738v16.564h-2.594v-1.54a4.181 4.181 0 01-1.665 1.272c-.649.283-1.369.424-2.162.424-1.11 0-2.112-.253-3.006-.759a5.423 5.423 0 01-2.076-2.143c-.504-.938-.756-2.01-.756-3.215s.252-2.27.756-3.192a5.424 5.424 0 012.076-2.143c.894-.506 1.896-.759 3.006-.759.764 0 1.463.134 2.097.402a4.23 4.23 0 011.622 1.205v-6.116h2.702zm-6.097 14.331a3.46 3.46 0 001.752-.446 3.34 3.34 0 001.232-1.317c.303-.566.454-1.22.454-1.965 0-.744-.151-1.398-.454-1.964a3.184 3.184 0 00-1.232-1.295 3.332 3.332 0 00-1.752-.469c-.648 0-1.232.157-1.751.47-.519.297-.93.728-1.232 1.294-.304.566-.455 1.22-.455 1.964 0 .745.151 1.4.455 1.965a3.334 3.334 0 001.232 1.317 3.456 3.456 0 001.751.446zm9.633-9.69h2.703v11.92h-2.703v-11.92zm1.362-1.964c-.489 0-.9-.157-1.232-.47a1.63 1.63 0 01-.497-1.205c0-.476.166-.87.497-1.183a1.686 1.686 0 011.232-.49c.49 0 .901.155 1.233.468.331.297.497.677.497 1.138 0 .492-.166.908-.497 1.25-.317.328-.728.492-1.233.492zm9.298 1.829c1.701 0 2.998.424 3.892 1.272.908.834 1.362 2.099 1.362 3.795v6.987h-2.551v-1.45c-.331.52-.808.922-1.427 1.205-.605.268-1.341.402-2.205.402-.866 0-1.622-.15-2.271-.447-.648-.312-1.153-.736-1.514-1.272a3.418 3.418 0 01-.518-1.853c0-1.072.382-1.927 1.146-2.567.778-.655 1.996-.983 3.654-.983h2.983v-.178c0-.833-.245-1.473-.734-1.92-.476-.446-1.19-.67-2.141-.67-.649 0-1.29.105-1.924.313a4.665 4.665 0 00-1.579.87l-1.06-2.03c.607-.477 1.334-.842 2.185-1.095a9.42 9.42 0 012.702-.38zm-.368 10.18c.678 0 1.276-.157 1.796-.47a2.63 2.63 0 001.123-1.384v-1.384h-2.789c-1.557 0-2.335.529-2.335 1.585 0 .506.195.908.584 1.206.389.297.93.446 1.621.446z" fill="#000"/></svg>