<svg viewBox="0 0 387 130" fill="none" xmlns="http://www.w3.org/2000/svg"><g clip-path="url(#clip0_1125_4583)"><mask id="a" style="mask-type:luminance" maskUnits="userSpaceOnUse" x="0" y="0" width="387" height="130"><path d="M387 0H0v130h387V0z" fill="#fff"/></mask><g mask="url(#a)"><path d="M227.96 60.644l-8.916-12.226h-7.467v32.606h6.639v-22.62l8.708 11.209h2.071l8.709-11.208v22.62h6.432V48.417h-7.467l-8.709 12.226zm132.291-12.226v6.12h9.951v26.486h6.639v-26.5h10.158v-6.12h-26.748v.014zm-89.574-.624c-9.565 0-17.308 7.626-17.308 17.015 0 9.404 7.757 17.016 17.308 17.016 9.564 0 17.308-7.626 17.308-17.016.013-9.39-7.744-17.015-17.308-17.015zm0 27.789c-6.045 0-10.945-4.817-10.945-10.76s4.9-10.76 10.945-10.76 10.945 4.817 10.945 10.76-4.9 10.76-10.945 10.76zm-114.211-27.79c-9.565 0-17.308 7.627-17.308 17.016 0 9.404 7.757 17.016 17.308 17.016 9.565 0 17.307-7.626 17.307-17.016 0-9.39-7.742-17.015-17.307-17.015zm0 27.79c-6.046 0-10.945-4.817-10.945-10.76s4.899-10.76 10.945-10.76c6.045 0 10.945 4.817 10.945 10.76-.014 5.943-4.9 10.76-10.945 10.76zM348.188 58.2c1.463 1.832 2.375 4.112 2.375 6.608 0 5.943-4.901 10.76-10.945 10.76-.994 0-1.946-.176-2.858-.42l-3.657 5.414c2.015.8 4.209 1.275 6.515 1.275 9.564 0 17.307-7.625 17.307-17.015 0-4.708-1.946-8.97-5.079-12.05l-3.658 5.428zm-8.57-4.138c1.835 0 3.546.488 5.078 1.275l5.328-4.057c-2.899-2.157-6.473-3.487-10.393-3.487-9.565 0-17.307 7.626-17.307 17.015 0 2.32.483 4.546 1.338 6.568l5.356-4.084a10.525 10.525 0 01-.318-2.484c-.027-5.93 4.872-10.746 10.918-10.746zm-218.817 0c3.617 0 6.805 1.75 8.792 4.41l4.513-4.437c-3.174-3.786-7.922-6.242-13.305-6.242-9.564 0-17.321 7.626-17.321 17.015 0 9.39 7.757 17.029 17.321 17.029 4.955 0 9.386-2.075 12.547-5.346l-4.5-4.423c-2.001 2.144-4.844 3.514-8.047 3.514-6.045 0-10.944-4.817-10.944-10.76s4.899-10.76 10.944-10.76zm183.263 20.855v-26.5h-6.639v32.606h21.462l-3.216-6.12h-11.607v.014zM191.122 61.281c-2.815-.84-4.582-2.781-3.933-5.006.538-1.86 3.271-2.728 6.086-1.94 1.808.501 3.216 1.56 3.851 2.754l4.21-4.152c-1.725-2.646-4.817-4.6-8.502-5.048-6.17-.746-12.146 3.23-12.367 8.358-.593 13.718 17.653 9.607 16.508 17.056-.332 2.185-3.741 3.121-6.985 2.212-2.138-.597-3.795-1.872-4.499-3.284l-4.527 4.37c1.974 2.673 5.438 4.654 9.565 5.156 6.901.827 12.85-2.85 13.333-8.236.648-7.178-5.894-10.19-12.74-12.24z" fill="#000"/><path d="M59.557 34.693c-15.54 0-28.397 11.34-30.537 26.088H4.582c2.247-28.015 25.999-50.06 54.975-50.06 14.445 0 27.591 5.48 37.422 14.442L81.022 43.272c-5.55-5.308-13.119-8.579-21.465-8.579z" fill="#0078FF"/><path d="M59.556 95.56c-17.037 0-30.846-13.622-30.846-30.43H4.41c0 30.047 24.693 54.408 55.15 54.408 14.445 0 27.591-5.477 37.422-14.443L81.025 86.987v-.004C75.47 92.29 67.902 95.56 59.556 95.56z" fill="#FFC003"/><path fill-rule="evenodd" clip-rule="evenodd" d="M0 65.129C0 32.679 26.666 6.373 59.557 6.373c17.157 0 32.618 7.156 43.485 18.606.206.219.21.56.012.787l-21.19 24.047a.598.598 0 01-.93-.04c-4.808-6.506-12.59-10.732-21.377-10.732-14.603 0-26.443 11.68-26.443 26.088H0zm29.02-4.348c2.14-14.748 14.997-26.088 30.537-26.088 8.346 0 15.914 3.27 21.465 8.578l15.957-18.108C87.149 16.2 74.002 10.72 59.557 10.72c-28.976 0-52.728 22.046-54.975 50.06H29.02zm52.843 19.664l21.191 24.046a.583.583 0 01-.012.784c-10.867 11.454-26.328 18.61-43.485 18.61C26.666 123.885 0 97.578 0 65.129h4.411c0 30.048 24.693 54.408 55.15 54.408 14.445 0 27.591-5.476 37.422-14.442l-15.958-18.11v-.003c-5.554 5.308-13.122 8.579-21.468 8.579-17.037 0-30.846-13.624-30.846-30.432h4.403c0 14.407 11.84 26.088 26.443 26.088 8.787 0 16.57-4.227 21.378-10.733a.6.6 0 01.928-.04z" fill="#fff"/></g></g><defs><clipPath id="clip0_1125_4583"><path fill="#fff" d="M0 0h387v130H0z"/></clipPath></defs></svg>