<svg viewBox="0 0 118 118" fill="none" xmlns="http://www.w3.org/2000/svg"><path d="M96.796 60.667c6.113 0 11.162 1.965 15.146 5.897C115.981 70.44 118 75.382 118 81.389c0 6.006-2.019 10.975-6.058 14.906-4.039 3.932-9.087 5.897-15.146 5.897H76.467V118h-15.8V60.667h36.13zM94.913 88.35c2.02 0 3.657-.627 4.913-1.883 1.309-1.31 1.964-3.004 1.964-5.078 0-1.31-.3-2.485-.9-3.522a5.932 5.932 0 00-2.374-2.54c-1.037-.6-2.238-.9-3.603-.9H76.468V88.35h18.447zm13.22 19.783H118V118h-9.867v-9.867z" fill="#EDFF00"/><path d="M100.818 0H118v57.333h-14.609L77.848 26.21v31.123H60.667V0h15.436l24.715 30.059V0zm-85.12 104.258h41.635V118H0V60.667h57.333v13.741H15.698v8.343h41.635v13H15.698v8.507z" fill="#000"/><path fill-rule="evenodd" clip-rule="evenodd" d="M51.153 51.752l-.06.052a30.569 30.569 0 00-16.25-9.143c4.874-2.31 8.244-7.278 8.244-13.032 0-5.106-2.653-9.592-6.656-12.153-.8-.511-1.347-1.363-1.347-2.312v-3.463c0-1.02-1.244-1.518-1.947-.78a1.13 1.13 0 01-1.79-.205l-.743-1.257c-.865-1.463-2.982-1.463-3.847 0l-.743 1.257a1.13 1.13 0 01-1.79.205c-.703-.738-1.947-.24-1.947.78v3.463c0 .949-.547 1.8-1.347 2.312a14.405 14.405 0 00-6.656 12.153c0 5.754 3.37 10.722 8.244 13.032a30.569 30.569 0 00-16.25 9.143l-.06-.052a19.97 19.97 0 01-5.06-7.796C0 40.721 0 36.691 0 28.633c0-8.059 0-12.089 1.148-15.324A19.993 19.993 0 0113.33 1.146C16.571 0 20.608 0 28.68 0c8.073 0 12.11 0 15.35 1.146a19.993 19.993 0 0112.183 12.162c1.148 3.235 1.148 7.265 1.148 15.324 0 8.06 0 12.089-1.148 15.324a19.967 19.967 0 01-5.06 7.796z" fill="#000"/><path d="M28.049 11.134a.72.72 0 011.263-.689.72.72 0 01-1.263.689z" fill="#000"/></svg>