<svg xmlns="http://www.w3.org/2000/svg" viewBox="0 0 314 122" fill="none"><path d="M85.362 11.266c0 5.575-4.71 10.27-10.302 10.27-5.593 0-10.302-4.695-10.302-10.27 0-5.575 4.71-10.27 10.302-10.27 5.886 0 10.302 4.695 10.302 10.27zM64.758 29.75c0-2.347 2.06-4.4 4.415-4.4h11.773c2.355 0 4.416 2.053 4.416 4.4v47.533h-20.31l-.294-47.532zm88.594 4.402c0-2.347 2.06-4.401 4.415-4.401h25.902c2.355 0 4.414 2.054 4.414 4.401v9.096c0 2.347-2.059 4.401-4.414 4.401h-25.902c-2.355 0-4.415-2.054-4.415-4.401v-9.096zm-5.591-5.282c0-15.55-12.95-27.873-28.55-27.873-15.6 0-28.257 12.323-28.55 27.58v48.706h21.191V29.164c0-4.401 3.532-7.922 7.653-7.922 4.416 0 7.653 3.52 7.653 7.922v48.12h20.309v-1.761l.294-46.652zM22.665 77.283H2.355V31.804c0-8.509 2.06-15.257 6.476-20.538 2.649-3.228 5.887-5.575 9.713-7.336 4.12-1.76 7.947-2.64 12.068-2.64 8.241 0 15.011 2.64 20.604 8.215 5.592 5.575 8.24 12.323 8.24 20.245 0 7.922-2.648 14.67-8.24 20.246-5.593 5.574-12.068 8.509-19.721 8.509-1.177 0-2.943 0-5.004-.294v-22.3c1.472.881 2.944 1.468 4.415 1.468 2.06 0 3.827-.88 5.298-2.347 1.472-1.467 2.355-3.521 2.355-5.575 0-2.347-.883-4.108-2.355-5.575-1.471-1.467-3.237-2.347-5.592-2.347-5.298 0-7.947 3.52-7.947 10.856v44.892zm233.706 0h20.603V32.39c0-7.335 2.649-10.856 7.948-10.856 2.355 0 4.12.88 5.592 2.347 1.471 1.467 2.354 3.228 2.354 5.575 0 2.054-.883 4.108-2.354 5.575-1.472 1.467-3.237 2.347-5.298 2.347-1.472 0-2.943-.587-4.416-1.467v22.3c2.061.293 3.828.293 5.004.293 7.654 0 14.129-2.935 19.721-8.51 5.592-5.574 8.242-12.323 8.242-20.245 0-7.922-2.65-14.67-8.242-20.245-5.592-5.575-12.363-8.215-20.603-8.215-4.122 0-7.948.88-12.068 2.64-3.826 1.76-7.064 4.108-9.713 7.335-4.416 5.282-6.476 12.03-6.476 20.54l-.294 45.478zm-62.695-27.581V3.637l.294-.88h21.193v46.359c0 4.4 3.237 7.922 7.653 7.922 4.121 0 7.653-3.521 7.653-7.922V2.756h20.309V49.41c0 15.551-12.952 27.874-28.551 27.874-15.6 0-28.257-12.323-28.551-27.58z" fill="#FF2400"/><path d="M82.95 98.57l-3.263 8.149h6.49l-3.227-8.148zm-31.364 5.076h2.617c2.796 0 4.338-1.359 4.338-3.789 0-2.394-1.47-3.716-4.338-3.716h-2.617v7.505zm59.219-7.648h2.366c2.474 0 3.98 1.25 3.98 3.43 0 2.181-1.542 3.396-4.016 3.396h-2.33v-6.826zm119.281 0h2.366c2.474 0 3.98 1.25 3.98 3.43 0 2.181-1.542 3.396-4.016 3.396h-2.33v-6.826z" fill="#00CFA6"/><path fill-rule="evenodd" clip-rule="evenodd" d="M314.001 85.91H1.121v18.485c0 9.528 7.749 17.252 17.307 17.252h278.265c9.559 0 17.308-7.724 17.308-17.252V85.91zm-44.564 22.917c0 4.253-3.155 6.969-8.102 6.969-4.481 0-7.134-1.894-8.174-5.789l3.836-1.43c.789 2.466 2.116 3.395 4.553 3.395 2.223 0 3.621-1.143 3.621-3.002 0-1.751-.968-2.716-4.696-3.645-4.553-1.143-6.668-3.252-6.668-7.04 0-3.86 2.832-6.468 7.528-6.468 3.765 0 6.202 1.572 7.278 4.752l-3.8 1.573c-.466-1.68-1.649-2.502-3.657-2.502-1.936 0-3.155.93-3.119 2.395.036 1.68 1.04 2.43 5.019 3.502 4.446 1.215 6.381 3.395 6.381 7.29zm-175.264 6.54h-4.517l-2.008-5.003H78.22l-2.008 5.003h-4.445l10.181-23.48h1.936l10.29 23.48zM54.312 92.281c5.52 0 8.497 2.752 8.497 7.433.035 4.717-3.084 7.719-8.533 7.755h-2.69v7.898h-4.408V92.281h7.134zm63.091 23.086h4.875l-5.341-9.685c2.832-1.071 4.589-3.43 4.589-6.61 0-4.254-3.012-6.791-7.888-6.791h-7.242v23.086h4.41v-9.113h1.793l4.804 9.113zm15.377-23.086h18.606v4.11h-7.134v18.976h-4.374V96.39h-7.098v-4.11zm46.209 0v14.545l-12.977-14.76h-1.972v23.301h4.23v-14.616l12.978 14.795h1.936V92.281h-4.195zm23.744 13.187v6.075h9.178v3.824h-13.587V92.281h13.229v3.824h-8.82v5.503h7.959v3.86h-7.959zm33.948 9.899h4.876l-5.342-9.685c2.832-1.071 4.589-3.43 4.589-6.61 0-4.254-3.011-6.791-7.887-6.791h-7.242v23.086h4.41v-9.113h1.792l4.804 9.113z" fill="#00CFA6"/></svg>