<svg xmlns="http://www.w3.org/2000/svg" width="1197" height="308" viewBox="0 0 1197 308" fill="none"><g clip-path="url(#clip0_322_52)"><path d="M267.103 0H38.475C17.225 0 0 17.226 0 38.475v230.85C0 290.574 17.226 307.8 38.475 307.8h228.628c21.249 0 38.475-17.226 38.475-38.475V38.475C305.578 17.225 288.352 0 267.103 0z" fill="#E63030"/><path d="M267.103 0H38.475C17.225 0 0 17.226 0 38.475v230.85C0 290.574 17.226 307.8 38.475 307.8h228.628c21.249 0 38.475-17.226 38.475-38.475V38.475C305.578 17.225 288.352 0 267.103 0z" fill="#E63030"/><path fill-rule="evenodd" clip-rule="evenodd" d="M22.226 105.557c0-46.027 37.312-83.34 83.339-83.34h78.894v68.895c0 9.206-7.462 16.668-16.667 16.668H22.226v-2.223zm261.134 96.685c0 46.027-37.313 83.34-83.34 83.34h-78.894v-68.895c0-9.205 7.462-16.668 16.667-16.668H283.36v2.223zm-83.34-91.126c46.027 0 83.34 37.312 83.34 83.34v2.222H105.569c-46.027 0-83.34-37.312-83.34-83.34v-2.222H200.02z" fill="#fff"/><path d="M413.647 135.155c0 6.545 1.118 12.132 3.353 16.762 2.235 4.629 5.348 8.461 9.339 11.494 3.991 2.873 8.541 5.029 13.649 6.465 5.269 1.278 10.936 1.916 17.002 1.916 6.545 0 12.132-.719 16.762-2.155 4.63-1.597 8.382-3.592 11.255-5.987 2.873-2.395 4.949-5.109 6.226-8.141 1.277-3.194 1.916-6.386 1.916-9.579 0-6.545-1.517-11.335-4.55-14.367-2.873-3.194-6.066-5.429-9.578-6.706-6.067-2.235-13.171-4.31-21.313-6.225-7.981-2.076-17.88-4.71-29.693-7.903-7.343-1.915-13.49-4.39-18.438-7.423-4.79-3.193-8.621-6.705-11.495-10.536-2.873-3.832-4.949-7.903-6.225-12.213a52.245 52.245 0 01-1.677-13.17c0-8.621 1.756-16.044 5.269-22.27 3.671-6.386 8.46-11.654 14.367-15.805 5.906-4.15 12.611-7.184 20.115-9.1 7.503-2.075 15.086-3.112 22.749-3.112 8.94 0 17.32 1.197 25.143 3.592 7.982 2.235 14.926 5.667 20.834 10.296 6.066 4.63 10.855 10.377 14.367 17.242 3.512 6.705 5.268 14.527 5.268 23.467H488.36c-.799-11.015-4.551-18.758-11.255-23.228-6.705-4.63-15.246-6.944-25.623-6.944-3.512 0-7.103.399-10.776 1.197-3.671.639-7.023 1.836-10.057 3.592-3.033 1.596-5.587 3.831-7.663 6.705-1.916 2.873-2.873 6.465-2.873 10.776 0 6.066 1.836 10.855 5.508 14.367 3.831 3.353 8.78 5.907 14.846 7.663.639.16 3.113.879 7.423 2.155 4.47 1.117 9.42 2.395 14.847 3.832a1054.786 1054.786 0 0115.805 4.31c5.267 1.278 9.019 2.235 11.254 2.874 5.588 1.756 10.457 4.15 14.607 7.184 4.151 3.032 7.583 6.545 10.298 10.536 2.872 3.831 4.948 7.982 6.225 12.452 1.437 4.47 2.155 8.94 2.155 13.41 0 9.578-1.995 17.8-5.986 24.664-3.832 6.705-8.94 12.213-15.325 16.523-6.386 4.311-13.65 7.423-21.792 9.339a100.439 100.439 0 01-24.903 3.113c-9.739 0-18.918-1.197-27.539-3.592-8.62-2.395-16.124-6.066-22.51-11.015-6.385-4.949-11.493-11.255-15.325-18.918-3.831-7.822-5.827-17.001-5.986-27.537h29.932zm209.633-15.806a41.642 41.642 0 00-2.874-12.452c-1.436-3.991-3.512-7.423-6.226-10.297-2.554-3.033-5.747-5.427-9.579-7.183-3.671-1.916-7.822-2.874-12.452-2.874-4.789 0-9.179.878-13.17 2.634a29.157 29.157 0 00-10.058 6.944c-2.713 2.874-4.948 6.306-6.705 10.297-1.596 3.991-2.474 8.301-2.633 12.931h63.697zm-63.697 17.959c0 4.79.638 9.419 1.915 13.889 1.437 4.47 3.513 8.382 6.226 11.734 2.714 3.353 6.147 6.066 10.297 8.141 4.151 1.916 9.1 2.874 14.847 2.874 7.982 0 14.368-1.676 19.156-5.028 4.95-3.513 8.621-8.701 11.016-15.565h25.862c-1.437 6.704-3.911 12.691-7.424 17.959-3.511 5.268-7.742 9.738-12.691 13.411-4.949 3.511-10.536 6.145-16.763 7.901-6.066 1.916-12.451 2.874-19.156 2.874-9.738 0-18.359-1.596-25.862-4.79-7.503-3.192-13.888-7.662-19.157-13.409-5.109-5.747-9.019-12.612-11.733-20.594-2.555-7.982-3.832-16.762-3.832-26.341 0-8.78 1.357-17.081 4.071-24.903 2.873-7.983 6.864-14.927 11.973-20.834 5.268-6.066 11.574-10.855 18.918-14.368 7.343-3.512 15.644-5.268 24.903-5.268 9.739 0 18.439 2.076 26.102 6.226 7.822 3.991 14.287 9.34 19.396 16.044 5.109 6.705 8.78 14.448 11.015 23.228 2.395 8.621 3.034 17.561 1.916 26.819h-90.995zm104.565-68.964h25.863v17.241h.718a70.013 70.013 0 016.705-8.381c2.394-2.554 5.029-4.71 7.902-6.466 3.033-1.756 6.465-3.113 10.297-4.07 3.831-1.118 8.221-1.677 13.171-1.677 7.502 0 14.447 1.676 20.833 5.029 6.545 3.352 11.174 8.54 13.888 15.565 4.63-6.386 9.978-11.414 16.044-15.086 6.066-3.672 13.649-5.508 22.749-5.508 13.09 0 23.228 3.193 30.412 9.579 7.343 6.385 11.015 17.082 11.015 32.088v85.488h-27.299v-72.318c0-4.949-.16-9.419-.479-13.41-.319-4.151-1.277-7.662-2.873-10.536-1.437-3.034-3.672-5.348-6.705-6.944-3.034-1.597-7.184-2.395-12.452-2.395-9.259 0-15.964 2.873-20.115 8.62-4.15 5.747-6.226 13.889-6.226 24.426v72.557h-27.299v-79.502c0-8.621-1.596-15.086-4.789-19.396-3.033-4.47-8.7-6.705-17.002-6.705-3.512 0-6.944.718-10.297 2.155-3.192 1.437-6.066 3.512-8.62 6.226-2.395 2.714-4.39 6.067-5.987 10.058-1.437 3.99-2.155 8.54-2.155 13.649v73.515h-27.299V68.344zm201.897 0H891.9v16.762h.479c3.83-7.184 9.183-12.292 16.048-15.325 6.866-3.193 14.287-4.79 22.273-4.79 9.73 0 18.194 1.756 25.376 5.268 7.345 3.353 13.415 8.062 18.203 14.129 4.788 5.907 8.379 12.85 10.773 20.833 2.394 7.982 3.591 16.523 3.591 25.622 0 8.301-1.111 16.364-3.351 24.186-2.078 7.823-5.344 14.767-9.816 20.833-4.309 5.906-9.815 10.696-16.527 14.368-6.703 3.512-14.603 5.268-23.7 5.268-3.993 0-7.986-.399-11.979-1.198a47.517 47.517 0 01-11.491-3.352 51.01 51.01 0 01-10.294-5.986 36.974 36.974 0 01-7.67-8.86h-.479v61.781h-27.291V68.343zm95.298 62.02c0-5.587-.718-11.015-2.154-16.283-1.437-5.268-3.591-9.898-6.464-13.889-2.873-4.15-6.464-7.423-10.773-9.818-4.309-2.554-9.26-3.831-14.852-3.831-11.491 0-20.195 3.991-26.094 11.973-5.754 7.982-8.627 18.598-8.627 31.848 0 6.226.718 12.053 2.154 17.481 1.599 5.268 3.916 9.818 6.952 13.65 3.026 3.831 6.626 6.864 10.773 9.099 4.309 2.235 9.259 3.352 14.842 3.352 6.233 0 11.5-1.276 15.809-3.831 4.31-2.554 7.824-5.827 10.534-9.818 2.873-4.15 4.873-8.78 5.985-13.889a67.603 67.603 0 001.915-16.044zm43.187-62.02h25.62V92.29h.48c.8-3.352 2.31-6.625 4.55-9.818 2.39-3.193 5.19-6.066 8.38-8.62a42.609 42.609 0 0111.01-6.466c3.99-1.597 8.06-2.395 12.22-2.395 3.19 0 5.34.08 6.46.24 1.28.16 2.56.319 3.83.479v26.34c-1.91-.319-3.9-.558-5.98-.718a34.978 34.978 0 00-5.75-.48c-4.63 0-9.02.96-13.17 2.875-3.99 1.756-7.5 4.47-10.54 8.142-3.03 3.511-5.42 7.902-7.18 13.17-1.76 5.268-2.63 11.334-2.63 18.199v58.908h-27.3V68.344zm129.54 127.154c-9.89 0-18.75-1.596-26.57-4.79-7.67-3.352-14.21-7.902-19.64-13.649-5.27-5.747-9.34-12.611-12.21-20.593-2.72-7.983-4.07-16.763-4.07-26.341 0-9.419 1.35-18.119 4.07-26.102 2.87-7.982 6.94-14.846 12.21-20.593 5.43-5.747 11.97-10.217 19.64-13.41 7.82-3.353 16.68-5.029 26.57-5.029 9.9 0 18.68 1.676 26.34 5.029 7.83 3.193 14.38 7.663 19.64 13.41 5.43 5.747 9.5 12.611 12.21 20.593 2.88 7.983 4.31 16.683 4.31 26.102 0 9.578-1.43 18.358-4.31 26.341-2.71 7.982-6.78 14.846-12.21 20.593-5.26 5.747-11.81 10.297-19.64 13.649-7.66 3.194-16.44 4.79-26.34 4.79zm0-21.552c6.07 0 11.34-1.276 15.81-3.831 4.47-2.554 8.14-5.907 11.01-10.058 2.88-4.15 4.95-8.78 6.23-13.888a60.996 60.996 0 002.15-16.044c0-5.269-.72-10.536-2.15-15.805-1.28-5.268-3.35-9.897-6.23-13.889-2.87-4.15-6.54-7.502-11.01-10.057-4.47-2.554-9.74-3.831-15.81-3.831-6.06 0-11.33 1.277-15.8 3.831-4.47 2.555-8.14 5.907-11.01 10.057-2.87 3.992-5.04 8.621-6.47 13.889-1.28 5.269-1.92 10.536-1.92 15.805 0 5.427.64 10.775 1.92 16.044 1.43 5.108 3.6 9.738 6.47 13.888 2.87 4.151 6.54 7.504 11.01 10.058 4.47 2.555 9.74 3.831 15.8 3.831zM410.499 277.952c11.021 0 18.156-6.619 19.158-15.697h-8.835c-1.154 5.04-5.071 8.015-10.262 8.015-7.682 0-12.631-6.406-12.631-16.577 0-9.99 5.04-16.275 12.631-16.275 5.768 0 9.29 3.644 10.262 8.016h8.835c-.971-9.412-8.653-15.667-19.249-15.667-13.147 0-21.648 9.898-21.648 24.138 0 14.058 8.197 24.047 21.739 24.047zm47.656 0c13.146 0 21.739-9.625 21.739-24.047 0-14.513-8.593-24.138-21.739-24.138-13.147 0-21.739 9.625-21.739 24.138 0 14.422 8.592 24.047 21.739 24.047zm.03-7.621c-8.592 0-12.6-7.5-12.6-16.456 0-8.927 4.008-16.518 12.6-16.518 8.532 0 12.54 7.591 12.54 16.518 0 8.956-4.008 16.456-12.54 16.456zm40.066-21.011c0-7.438 4.555-11.689 10.87-11.689 6.163 0 9.898 4.038 9.898 10.809v28.57h9.078v-29.663c0-11.538-6.345-17.58-15.88-17.58-7.013 0-11.598 3.248-13.754 8.198h-.576v-7.591h-8.714v46.636h9.078v-27.69zm63.361-18.946h-10.05v-4.19c0-4.129 1.701-6.376 6.133-6.376 1.883 0 3.219.425 4.069.699l2.125-7.348c-1.275-.486-3.916-1.245-7.59-1.245-7.378 0-13.845 4.312-13.845 13.056v5.404h-7.196v7.288h7.196v39.348h9.108v-39.348h10.05v-7.288zm26.775 47.578c10.171 0 17.367-5.01 19.431-12.6l-8.592-1.549c-1.639 4.403-5.587 6.65-10.749 6.65-7.772 0-12.995-5.041-13.238-14.028h33.157v-3.219c0-16.85-10.081-23.439-20.647-23.439-12.995 0-21.557 9.898-21.557 24.229 0 14.483 8.44 23.956 22.195 23.956zm-13.117-28.328c.364-6.619 5.162-12.357 12.54-12.357 7.044 0 11.658 5.222 11.689 12.357H575.27zm42.343 27.386h9.079v-28.479c0-6.103 4.706-10.505 11.142-10.505 1.883 0 4.008.333 4.737.546v-8.683c-.911-.122-2.703-.213-3.856-.213-5.466 0-10.142 3.097-11.841 8.107h-.487v-7.409h-8.774v46.636zm50.389.942c10.171 0 17.367-5.01 19.431-12.6l-8.592-1.549c-1.639 4.403-5.587 6.65-10.749 6.65-7.772 0-12.994-5.041-13.237-14.028h33.156v-3.219c0-16.85-10.081-23.439-20.647-23.439-12.995 0-21.557 9.898-21.557 24.229 0 14.483 8.44 23.956 22.195 23.956zm-13.117-28.328c.364-6.619 5.162-12.357 12.54-12.357 7.044 0 11.659 5.222 11.689 12.357h-24.229zm51.422-.304c0-7.438 4.553-11.689 10.869-11.689 6.164 0 9.899 4.038 9.899 10.809v28.57h9.077v-29.663c0-11.538-6.345-17.58-15.879-17.58-7.013 0-11.598 3.248-13.754 8.198h-.577v-7.591h-8.714v46.636h9.079v-27.69zm60.81 28.632c11.022 0 18.157-6.619 19.159-15.697h-8.836c-1.153 5.04-5.07 8.015-10.263 8.015-7.681 0-12.63-6.406-12.63-16.577 0-9.99 5.041-16.275 12.63-16.275 5.77 0 9.292 3.644 10.263 8.016h8.836c-.972-9.412-8.654-15.667-19.25-15.667-13.147 0-21.648 9.898-21.648 24.138 0 14.058 8.197 24.047 21.739 24.047zm48.111 0c10.172 0 17.368-5.01 19.433-12.6l-8.593-1.549c-1.64 4.403-5.586 6.65-10.748 6.65-7.773 0-12.995-5.041-13.238-14.028h33.155v-3.219c0-16.85-10.08-23.439-20.646-23.439-12.995 0-21.558 9.898-21.558 24.229 0 14.483 8.442 23.956 22.195 23.956zm-13.116-28.328c.364-6.619 5.162-12.357 12.54-12.357 7.044 0 11.659 5.222 11.689 12.357h-24.229z" fill="#000"/></g><defs><clipPath id="clip0_322_52"><path fill="#fff" d="M0 0h1197v307.8H0z"/></clipPath></defs></svg>