<svg xmlns="http://www.w3.org/2000/svg" viewBox="0 0 351 89" fill="none"><path d="M69.793 68.951c-.474 0-.866-.146-1.176-.453-.31-.308-.457-.68-.457-1.165v-7.217c0-.47.147-.858.457-1.165.31-.308.686-.453 1.176-.453h7.28c.474 0 .866.145 1.176.453.31.307.458.68.458 1.165v7.217c0 .47-.147.858-.458 1.165-.31.307-.702.453-1.175.453h-7.281zM88.664 81.2c-.474 0-.865-.145-1.176-.453-.31-.307-.457-.695-.457-1.165V37.024c0-.469.147-.857.457-1.165.31-.307.686-.453 1.176-.453h6.187c.474 0 .865.146 1.176.453.31.308.457.696.457 1.165v2.444c1.045-1.376 2.383-2.509 4.032-3.382 1.649-.874 3.706-1.327 6.188-1.327 2.253 0 4.212.356 5.893 1.068 1.665.712 3.086 1.715 4.228 3.026 1.143 1.31 2.041 2.896 2.662 4.741.62 1.845.979 3.932 1.077 6.246.049.825.065 1.586.065 2.314s-.016 1.521-.065 2.379c-.049 2.184-.375 4.207-1.012 6.068-.621 1.845-1.535 3.447-2.694 4.774a12.103 12.103 0 01-4.261 3.09c-1.698.761-3.657 1.117-5.91 1.117-2.204 0-4.13-.404-5.763-1.197-1.632-.793-2.955-1.878-4-3.253v14.434c0 .47-.146.858-.457 1.165-.31.308-.669.453-1.11.453h-6.693v.017zm15.101-19.353c1.649 0 2.955-.356 3.902-1.068.947-.712 1.632-1.65 2.057-2.8.408-1.164.653-2.427.751-3.802.081-1.327.081-2.67 0-3.997a13.947 13.947 0 00-.751-3.803 5.756 5.756 0 00-2.057-2.8c-.947-.711-2.253-1.067-3.902-1.067-1.6 0-2.906.372-3.902 1.1a6.187 6.187 0 00-2.155 2.767c-.44 1.117-.686 2.314-.784 3.609a37.93 37.93 0 00-.065 2.379c0 .825.017 1.634.066 2.443.049 1.197.31 2.33.816 3.382a6.696 6.696 0 002.204 2.605c.979.712 2.253 1.052 3.82 1.052zm32.73 7.735c-2.302 0-4.359-.437-6.187-1.327-1.829-.874-3.282-2.071-4.359-3.576-1.078-1.505-1.633-3.188-1.633-5.033 0-3.058 1.241-5.453 3.739-7.217 2.498-1.764 5.779-2.961 9.861-3.608l8.522-1.23v-1.149c0-1.683-.392-2.961-1.176-3.867-.783-.907-2.155-1.36-4.098-1.36-1.436 0-2.579.275-3.444.842a5.869 5.869 0 00-2.008 2.184c-.343.567-.849.842-1.502.842h-6.188c-.473 0-.849-.146-1.11-.421a1.186 1.186 0 01-.326-1.003c0-.728.277-1.586.849-2.573.555-.987 1.436-1.974 2.595-2.93 1.159-.954 2.661-1.78 4.49-2.41 1.828-.648 4.049-.971 6.693-.971 2.727 0 5.078.324 7.02.97 1.959.648 3.51 1.554 4.686 2.703a10.731 10.731 0 012.596 4.03c.571 1.52.849 3.171.849 4.935v19.92c0 .469-.147.857-.458 1.165-.31.307-.702.453-1.175.453h-6.367c-.441 0-.8-.146-1.11-.453-.31-.308-.457-.68-.457-1.165v-2.379c-.572.825-1.323 1.586-2.27 2.282-.946.712-2.089 1.278-3.412 1.715-1.289.42-2.84.631-4.62.631zm2.596-6.7c1.437 0 2.71-.307 3.837-.905 1.126-.6 2.008-1.522 2.661-2.768.653-1.246.979-2.815.979-4.709v-1.1l-6.057.971c-2.334.388-4.048.971-5.142 1.748-1.078.776-1.633 1.715-1.633 2.831 0 .81.245 1.522.751 2.12.506.6 1.159 1.052 1.992 1.36a7.453 7.453 0 002.612.453zm48.651-27.46V24.791c0-.47.163-.858.49-1.166a1.597 1.597 0 011.143-.453h6.367c.473 0 .865.146 1.175.453.31.308.457.696.457 1.166v10.631h8.13c.441 0 .8.146 1.111.453.31.307.457.696.457 1.165v4.386c0 .469-.147.857-.457 1.164a1.5 1.5 0 01-1.111.454h-8.13V55.81c0 1.635.294 2.913.882 3.835.588.922 1.616 1.392 3.085 1.392h4.751c.441 0 .8.146 1.11.453.31.307.457.663.457 1.1v4.774c0 .47-.147.858-.457 1.165-.31.308-.669.453-1.11.453h-5.665c-2.694 0-4.979-.437-6.889-1.327-1.91-.874-3.347-2.25-4.327-4.094-.979-1.844-1.469-4.175-1.469-6.958V35.422zm26.251 33.529c-.441 0-.8-.146-1.11-.453-.31-.308-.457-.68-.457-1.165V37.024c0-.469.147-.857.457-1.165.31-.307.669-.453 1.11-.453h6.367c.473 0 .865.146 1.175.453.311.308.458.696.458 1.165v2.508c1.126-1.375 2.579-2.508 4.358-3.414 1.78-.906 3.951-1.36 6.498-1.36 2.563 0 4.8.567 6.726 1.716 1.927 1.133 3.445 2.8 4.555 4.968 1.11 2.168 1.665 4.806 1.665 7.897v17.994c0 .47-.163.857-.489 1.165a1.599 1.599 0 01-1.143.453h-6.89c-.473 0-.865-.146-1.175-.453-.31-.308-.457-.68-.457-1.165V49.727c0-2.282-.555-4.045-1.665-5.324-1.111-1.262-2.727-1.893-4.849-1.893-2.041 0-3.657.631-4.881 1.893-1.209 1.262-1.829 3.042-1.829 5.324v17.606c0 .47-.147.857-.457 1.165-.31.307-.669.453-1.11.453h-6.857zm52.751.631c-4.979 0-8.946-1.375-11.869-4.126-2.922-2.751-4.473-6.748-4.652-11.991v-2.783c.179-3.318.93-6.166 2.269-8.544 1.339-2.379 3.232-4.207 5.665-5.486 2.432-1.262 5.273-1.91 8.522-1.91 3.64 0 6.693.745 9.142 2.218 2.449 1.488 4.294 3.511 5.535 6.068 1.24 2.556 1.861 5.485 1.861 8.803v1.488c0 .437-.164.793-.49 1.1a1.599 1.599 0 01-1.143.454h-21.272v.518c.049 1.375.31 2.637.816 3.77s1.208 2.055 2.139 2.735c.93.696 2.057 1.035 3.347 1.035 1.077 0 1.975-.145 2.661-.453.685-.307 1.273-.663 1.73-1.1.457-.42.784-.793 1.012-1.1.392-.421.702-.696.947-.81.245-.113.621-.161 1.143-.161h6.759c.441 0 .783.113 1.077.356.278.242.408.566.359 1.003-.049.696-.408 1.537-1.077 2.54-.669 1.004-1.665 2.007-2.955 2.962-1.306.97-2.922 1.78-4.849 2.41-1.942.68-4.163 1.004-6.677 1.004zm-6.448-20.567h12.75v-.13c0-1.553-.245-2.896-.751-4.029-.506-1.132-1.225-2.039-2.171-2.67-.947-.647-2.106-.97-3.445-.97s-2.498.323-3.445.97c-.947.648-1.681 1.538-2.171 2.67-.506 1.133-.751 2.476-.751 4.03v.129h-.016zm29.287 19.935c-.441 0-.8-.145-1.11-.452-.31-.308-.457-.68-.457-1.166V37.024c0-.437.147-.81.457-1.133.31-.323.669-.485 1.11-.485h6.367c.441 0 .816.162 1.143.485.326.324.489.696.489 1.133v2.573a11.03 11.03 0 014-3.09c1.584-.73 3.412-1.101 5.502-1.101h1.567c.441 0 .8.145 1.11.453.31.307.457.696.457 1.165v5.55c0 .47-.147.858-.457 1.165-.31.308-.669.454-1.11.454h-4.489c-1.91 0-3.396.534-4.49 1.585-1.077 1.052-1.632 2.54-1.632 4.483v17.088c0 .469-.147.857-.458 1.165-.31.307-.702.453-1.175.453h-6.824v-.016zm-126.395 0c-.44 0-.8-.145-1.11-.452-.31-.308-.457-.68-.457-1.166V37.024c0-.437.147-.81.457-1.133.31-.323.67-.485 1.11-.485h6.367c.441 0 .817.162 1.143.485.327.324.49.696.49 1.133v2.573a11.013 11.013 0 014-3.09c1.583-.73 3.412-1.101 5.501-1.101h1.568c.44 0 .8.145 1.11.453.31.307.457.696.457 1.165v5.55c0 .47-.147.858-.457 1.165-.31.308-.67.454-1.11.454h-4.49c-1.91 0-3.396.534-4.489 1.585-1.078 1.052-1.633 2.54-1.633 4.483v17.088c0 .469-.147.857-.457 1.165-.31.307-.702.453-1.176.453h-6.824v-.016zm164.286.632c-2.694 0-4.996-.307-6.922-.939-1.926-.615-3.494-1.391-4.686-2.281-1.191-.89-2.073-1.813-2.661-2.735-.587-.922-.897-1.715-.946-2.346a1.31 1.31 0 01.457-1.165c.342-.308.702-.453 1.044-.453h6.302c.131 0 .261.016.392.064.131.049.261.146.392.324a26.59 26.59 0 011.763 1.327c.604.501 1.306.906 2.122 1.262.8.34 1.812.518 3.02.518 1.437 0 2.645-.291 3.641-.874.996-.582 1.502-1.408 1.502-2.476 0-.777-.228-1.424-.686-1.942-.457-.517-1.306-.987-2.563-1.424-1.257-.437-3.118-.906-5.599-1.424-2.335-.517-4.343-1.197-5.992-2.055-1.649-.857-2.89-1.942-3.706-3.252-.832-1.311-1.241-2.897-1.241-4.742 0-1.683.523-3.285 1.6-4.838 1.062-1.553 2.629-2.832 4.718-3.835 2.074-1.003 4.686-1.521 7.804-1.521 2.384 0 4.473.291 6.269.874 1.796.582 3.298 1.31 4.522 2.184 1.208.874 2.139 1.78 2.759 2.703.621.922.964 1.731 1.012 2.41.049.438-.081.794-.391 1.101-.311.308-.653.453-1.045.453h-5.796a1.71 1.71 0 01-.587-.097 1.228 1.228 0 01-.458-.291 18.77 18.77 0 01-1.599-1.198c-.539-.453-1.176-.841-1.927-1.197-.735-.34-1.698-.518-2.857-.518-1.437 0-2.53.308-3.281.939-.751.63-1.143 1.407-1.143 2.346 0 .599.196 1.165.588 1.683.391.518 1.191.987 2.399 1.424 1.209.437 3.053.874 5.535 1.36 2.955.517 5.289 1.294 7.02 2.313 1.73 1.036 2.987 2.217 3.738 3.576.751 1.36 1.143 2.8 1.143 4.353 0 2.023-.604 3.82-1.828 5.389-1.208 1.57-2.988 2.8-5.306 3.673-2.286.89-5.143 1.327-8.522 1.327z" fill="#2B50F1"/><path d="M80.352 12.946a2.443 2.443 0 00-2.057-1.1H57.97c-.98 0-1.877.582-2.27 1.472L33.156 65.116a2.437 2.437 0 00.212 2.314 2.443 2.443 0 002.057 1.1H55.75c.98 0 1.877-.582 2.269-1.472L80.565 15.26a2.44 2.44 0 00-.213-2.314z" fill="#FF4E20"/><path d="M53.482 67.138L34.756 27.784l-.996-2.087a2.47 2.47 0 00-2.236-1.408H9.876a2.47 2.47 0 00-2.09 1.133 2.437 2.437 0 00-.147 2.362l18.726 39.338A2.47 2.47 0 0028.6 68.53h27.134c-.98 0-1.845-.534-2.253-1.392z" fill="#2B50F1"/></svg>