<svg width="130" height="54" viewBox="0 0 51 24" fill="none" xmlns="http://www.w3.org/2000/svg"><g clip-path="url(#clip0_1181_2261)"><path d="M24.347 12.347v5.786h-1.878V3.823h4.882c1.19 0 2.317.435 3.193 1.244.876.747 1.314 1.867 1.314 3.049s-.438 2.24-1.314 3.049a4.563 4.563 0 01-3.193 1.244l-3.004-.062zm0-6.782v4.978h3.13c.688 0 1.377-.25 1.815-.747a2.376 2.376 0 00.063-3.422l-.063-.062c-.5-.498-1.127-.81-1.815-.747h-3.13zm11.832 2.489c1.377 0 2.44.374 3.255 1.12.814.747 1.189 1.742 1.189 2.987v5.973H38.87v-1.37h-.062c-.752 1.12-1.816 1.68-3.068 1.68-1.064 0-2.003-.31-2.754-.932-.688-.623-1.127-1.494-1.127-2.427 0-.996.376-1.804 1.127-2.427.751-.622 1.816-.87 3.067-.87 1.127 0 2.004.186 2.692.622v-.436c0-.622-.25-1.244-.751-1.618a2.737 2.737 0 00-1.815-.684c-1.065 0-1.878.435-2.442 1.306l-1.627-.995c1.001-1.307 2.316-1.929 4.069-1.929zm-2.38 7.093c0 .498.251.934.627 1.182.438.311.939.498 1.44.498.75 0 1.502-.311 2.065-.87.626-.56.94-1.245.94-1.992-.564-.435-1.378-.684-2.442-.684-.751 0-1.377.186-1.878.56-.5.31-.751.746-.751 1.306zm16.966-6.783l-6.197 14.124H42.69l2.316-4.915-4.069-9.147h2.004l2.942 7.031h.062l2.88-7.03h1.94v-.063z" fill="#000"/><path d="M16.903 11.102c0-.56-.063-1.12-.125-1.68H8.953v3.174h4.445c-.188.995-.752 1.928-1.628 2.488v2.054h2.692c1.565-1.432 2.441-3.547 2.441-6.036z" fill="#4285F4"/><path d="M8.949 19.13c2.254 0 4.132-.747 5.509-1.992l-2.692-2.053c-.751.498-1.69.809-2.817.809-2.128 0-4.006-1.431-4.632-3.422H1.562v2.115c1.44 2.8 4.257 4.542 7.387 4.542z" fill="#34A853"/><path d="M4.318 12.471c-.375-.995-.375-2.115 0-3.173V7.183H1.564c-1.19 2.302-1.19 5.04 0 7.404l2.754-2.116z" fill="#FBBC04"/><path d="M8.949 5.938c1.19 0 2.316.436 3.192 1.245l2.38-2.364c-1.503-1.37-3.506-2.178-5.51-2.116-3.13 0-6.009 1.742-7.386 4.542l2.754 2.116c.564-1.991 2.442-3.423 4.57-3.423z" fill="#EA4335"/></g><defs><clipPath id="clip0_1181_2261"><path fill="#fff" transform="translate(.688 .09)" d="M0 0h50.078v23.706H0z"/></clipPath></defs></svg>