<svg width="66" height="67" viewBox="0 0 66 67" fill="none" xmlns="http://www.w3.org/2000/svg"><path fill-rule="evenodd" clip-rule="evenodd" d="M22.567 1.368c-7.058 2.868-8.406 14.793-2.271 20.086 3.181 2.746 4.51 2.883 7.948.823 6.567-3.935 6.267-17.013-.468-20.436C25.12.49 24.798.46 22.567 1.368zm22.688 4.04c-3.255.829-7.921 5.991-8.593 9.508-1.391 7.288 2.04 12.485 7.747 11.733 5.778-.762 9.988-6.466 9.988-13.532 0-6.236-3.462-9.156-9.142-7.71zM3.9 16.138C.49 18.092-.75 24.006 1.261 28.735c3.557 8.367 13.206 7.757 14.388-.907 1.122-8.216-5.794-15.096-11.748-11.689zm52.068 8.529c-6.592 2.583-9.982 10.947-6.3 15.546 2.204 2.754 4.942 3.215 8.885 1.498 3.976-1.733 4.886-2.734 6.457-7.111 1.542-4.296.476-8-2.782-9.655-2.578-1.31-3.518-1.353-6.26-.278zm-27.9 1.514c-1.297.382-5.25 3.218-8.785 6.3-3.536 3.084-7.996 6.892-9.913 8.463-6.223 5.102-7.64 11.401-3.768 16.745 2.337 3.225 6 4.213 13.28 3.582 5.395-.466 6.631-.302 11.543 1.538 11.309 4.235 14.805 4.39 18.713.833 4.525-4.122 4.085-11.93-1.067-18.919-1.326-1.798-3.572-5.775-4.992-8.836-2.633-5.676-6.451-9.77-9.113-9.77-.796 0-1.919-.143-2.494-.317-.576-.173-2.108-.002-3.405.381z" fill="#000"/></svg>