<svg width="220" height="85" viewBox="0 0 73 25" fill="none" xmlns="http://www.w3.org/2000/svg"><path d="M10.443 22.695c5.362 0 9.71-4.43 9.71-9.896 0-5.466-4.348-9.896-9.71-9.896-5.362 0-9.709 4.43-9.709 9.896 0 5.465 4.347 9.896 9.71 9.896z" fill="#26A17B"/><path d="M11.476 13.713v-.002c-.068.005-.414.026-1.185.026-.617 0-1.05-.018-1.202-.026v.002c-2.371-.107-4.14-.527-4.14-1.031 0-.503 1.77-.925 4.14-1.031v1.643c.155.011.6.039 1.213.039.737 0 1.105-.032 1.174-.039v-1.642c2.366.109 4.13.529 4.13 1.032 0 .502-1.766.922-4.13 1.03m0-2.232v-1.47h3.301V7.771H5.789v2.241h3.302v1.47c-2.684.126-4.7.667-4.7 1.316 0 .65 2.018 1.19 4.7 1.317v4.713h2.386v-4.713c2.679-.125 4.692-.666 4.692-1.315 0-.648-2.013-1.19-4.692-1.316" fill="#fff"/><path d="M28.4 8.382v2.377h2.266v1.783h-2.282v3.617c0 .798.432 1.188 1.066 1.188.317 0 .684-.102.983-.255L31 18.86a4.486 4.486 0 01-1.683.356c-1.782.068-2.948-.968-2.948-3.056v-3.617h-1.533V10.76h1.533V8.603l2.03-.221zm39.074 2.265l.15.968c.633-1.036 1.483-1.189 2.316-1.189.85 0 1.666.34 2.115.797l-.916 1.8c-.417-.357-.8-.544-1.466-.544-1.066 0-2.05.577-2.05 2.122v4.415h-2.032v-8.372l1.883.003zm-4.981 3.21c-.133-1.087-.966-1.631-2.132-1.631-1.1 0-2 .544-2.3 1.63h4.432zm-4.464 1.715c.132 1.035 1.016 1.783 2.449 1.783.75 0 1.733-.29 2.2-.781l1.298 1.308c-.866.916-2.282 1.358-3.532 1.358-2.832 0-4.516-1.783-4.516-4.466 0-2.547 1.7-4.381 4.366-4.381 2.748 0 4.466 1.732 4.149 5.178h-6.414zm-8.963-8.44v4.651c.734-.967 1.633-1.256 2.566-1.256 2.332 0 3.366 1.613 3.366 4.076v4.415h-2.033V14.62c0-1.529-.783-2.173-1.867-2.173-1.2 0-2.032 1.036-2.032 2.292v4.28h-2.032V7.133l2.032-.002zm-5.398 1.154v2.377h2.267v1.784h-2.282v3.616c0 .799.434 1.189 1.066 1.189.317 0 .684-.102.983-.255l.567 1.766a4.485 4.485 0 01-1.683.356c-1.782.069-2.948-.968-2.948-3.056v-3.616h-1.533v-1.784h1.533V8.508l2.03-.222zm-5.614 5.57c-.133-1.086-.966-1.63-2.132-1.63-1.1 0-2 .544-2.3 1.63h4.432zm-4.465 1.716c.133 1.035 1.017 1.783 2.45 1.783.749 0 1.732-.29 2.199-.781l1.299 1.308c-.867.916-2.282 1.358-3.533 1.358-2.833 0-4.515-1.783-4.515-4.466 0-2.547 1.7-4.381 4.364-4.381 2.749 0 4.464 1.732 4.149 5.178h-6.413z" fill="#000"/></svg>